<?xml version="1.0"?>
<svg xmlns="http://www.w3.org/2000/svg" height="512px" viewBox="-159 0 512 512" width="512px"><g><path d="m176.085938 407.785156c-4.164063-.21875-7.675782 3.003906-7.875 7.152344l-.964844 20.042969c-1.671875 34.753906-32.535156 61.976562-70.261719 61.976562-37.730469 0-68.589844-27.222656-70.261719-61.976562l-9.40625-195.507813c-.199218-4.148437-3.722656-7.339844-7.875-7.148437-4.148437.199219-7.351562 3.722656-7.148437 7.875l9.402343 195.503906c2.058594 42.785156 39.519532 76.296875 85.289063 76.296875 45.765625 0 83.230469-33.511719 85.285156-76.296875l.964844-20.042969c.199219-4.148437-3-7.675781-7.148437-7.875zm0 0" data-original="#000000" class="active-path" data-old_color="#000000" fill="#FFFFFF"/><path d="m169.40625 130.210938c-18.390625-19.292969-44.785156-30.359376-72.421875-30.359376s-54.03125 11.066407-72.421875 30.359376c-16.917969 17.753906-25.605469 40.621093-24.460938 64.394531l.746094 15.519531c.195313 4.148438 3.699219 7.324219 7.871094 7.148438 4.152344-.199219 7.351562-3.722657 7.152344-7.871094l-.746094-15.519532c-.941406-19.621093 6.277344-38.546874 20.328125-53.292968 15.5625-16.332032 37.992187-25.699219 61.53125-25.699219 23.542969 0 45.96875 9.367187 61.535156 25.699219 14.050781 14.742187 21.269531 33.671875 20.324219 53.292968l-9.1875 190.992188c-.199219 4.148438 3.003906 7.675781 7.152344 7.875.125.003906.246094.007812.367187.007812 3.988281 0 7.3125-3.132812 7.507813-7.160156l9.1875-190.992187c1.140625-23.773438-7.546875-46.640625-24.464844-64.394531zm0 0" data-original="#000000" class="active-path" data-old_color="#000000" fill="#FFFFFF"/><path d="m41.964844 31.8125c16.578125-10.972656 35.601562-16.769531 55.019531-16.769531s38.441406 5.796875 55.019531 16.769531c1.277344.84375 2.71875 1.25 4.140625 1.25 2.441407 0 4.832031-1.1875 6.28125-3.371094 2.292969-3.464844 1.34375-8.132812-2.121093-10.421875-19.046876-12.605469-40.941407-19.269531-63.320313-19.269531s-44.273437 6.664062-63.320313 19.265625c-3.464843 2.292969-4.414062 6.960937-2.121093 10.425781 2.292969 3.460938 6.957031 4.410156 10.421875 2.121094zm0 0" data-original="#000000" class="active-path" data-old_color="#000000" fill="#FFFFFF"/><path d="m141.476562 58.0625c2.25-3.492188 1.242188-8.148438-2.25-10.398438-12.746093-8.214843-27.355468-12.558593-42.242187-12.558593s-29.496094 4.34375-42.242187 12.558593c-3.492188 2.25-4.5 6.90625-2.25 10.398438 1.4375 2.230469 3.859374 3.445312 6.328124 3.445312 1.398438 0 2.808594-.386718 4.070313-1.199218 10.3125-6.644532 22.101563-10.160156 34.09375-10.160156s23.78125 3.515624 34.09375 10.160156c3.492187 2.25 8.148437 1.242187 10.398437-2.246094zm0 0" data-original="#000000" class="active-path" data-old_color="#000000" fill="#FFFFFF"/><path d="m96.984375 70.449219c-7.296875 0-14.453125 2.488281-20.6875 7.1875-3.316406 2.503906-3.976563 7.21875-1.476563 10.535156 2.503907 3.316406 7.21875 3.980469 10.535157 1.476563 3.65625-2.757813 7.566406-4.15625 11.628906-4.15625s7.972656 1.398437 11.628906 4.15625c1.355469 1.023437 2.945313 1.519531 4.523438 1.515624 2.28125 0 4.53125-1.03125 6.011719-2.992187 2.5-3.316406 1.839843-8.03125-1.476563-10.535156-6.234375-4.699219-13.390625-7.1875-20.6875-7.1875zm0 0" data-original="#000000" class="active-path" data-old_color="#000000" fill="#FFFFFF"/><path d="m128.222656 178.523438c2.972656 2.972656 5.496094 6.328124 7.5 9.972656 2 3.640625 6.574219 4.96875 10.214844 2.96875s4.96875-6.574219 2.96875-10.214844c-2.6875-4.890625-6.070312-9.386719-10.046875-13.363281-23.089844-23.089844-60.660156-23.089844-83.753906 0-23.089844 23.089843-23.089844 60.660156 0 83.75 11.546875 11.546875 26.710937 17.320312 41.878906 17.320312 15.164063 0 30.328125-5.773437 41.875-17.320312 9.828125-9.828125 15.90625-22.851563 17.117187-36.679688.363282-4.136719-2.699218-7.785156-6.835937-8.148437-4.144531-.367188-7.785156 2.695312-8.148437 6.835937-.902344 10.308594-5.4375 20.023438-12.769532 27.355469-17.226562 17.226562-45.253906 17.226562-62.476562 0-17.226563-17.222656-17.226563-45.25 0-62.476562 17.222656-17.222657 45.253906-17.226563 62.476562 0zm0 0" data-original="#000000" class="active-path" data-old_color="#000000" fill="#FFFFFF"/><path d="m118.789062 327.503906c0-12.023437-9.78125-21.804687-21.804687-21.804687s-21.804687 9.78125-21.804687 21.804687c0 12.019532 9.78125 21.804688 21.804687 21.804688s21.804687-9.78125 21.804687-21.804688zm-28.566406 0c0-3.730468 3.035156-6.761718 6.761719-6.761718 3.730469 0 6.761719 3.03125 6.761719 6.761718 0 3.726563-3.03125 6.761719-6.761719 6.761719-3.726563 0-6.761719-3.035156-6.761719-6.761719zm0 0" data-original="#000000" class="active-path" data-old_color="#000000" fill="#FFFFFF"/><path d="m96.984375 422.820312c12.023437 0 21.804687-9.78125 21.804687-21.804687s-9.78125-21.804687-21.804687-21.804687-21.804687 9.78125-21.804687 21.804687 9.78125 21.804687 21.804687 21.804687zm0-28.566406c3.730469 0 6.761719 3.035156 6.761719 6.761719 0 3.730469-3.03125 6.761719-6.761719 6.761719-3.726563 0-6.761719-3.03125-6.761719-6.761719 0-3.726563 3.035156-6.761719 6.761719-6.761719zm0 0" data-original="#000000" class="active-path" data-old_color="#000000" fill="#FFFFFF"/><path d="m134.398438 386.011719c12.023437 0 21.808593-9.78125 21.808593-21.804688 0-12.023437-9.785156-21.804687-21.808593-21.804687-12.019532 0-21.800782 9.78125-21.800782 21.804687 0 12.023438 9.78125 21.804688 21.800782 21.804688zm0-28.566407c3.730468 0 6.765624 3.035157 6.765624 6.761719 0 3.730469-3.035156 6.761719-6.765624 6.761719-3.726563 0-6.757813-3.03125-6.757813-6.761719 0-3.726562 3.03125-6.761719 6.757813-6.761719zm0 0" data-original="#000000" class="active-path" data-old_color="#000000" fill="#FFFFFF"/><path d="m59.566406 386.011719c12.023438 0 21.804688-9.78125 21.804688-21.804688 0-12.023437-9.78125-21.804687-21.804688-21.804687-12.023437 0-21.804687 9.78125-21.804687 21.804687 0 12.023438 9.78125 21.804688 21.804687 21.804688zm0-28.566407c3.730469 0 6.761719 3.035157 6.761719 6.761719 0 3.730469-3.03125 6.761719-6.761719 6.761719-3.726562 0-6.761718-3.03125-6.761718-6.761719 0-3.726562 3.035156-6.761719 6.761718-6.761719zm0 0" data-original="#000000" class="active-path" data-old_color="#000000" fill="#FFFFFF"/></g> </svg>
