<?xml version="1.0"?>
<svg xmlns="http://www.w3.org/2000/svg" xmlns:xlink="http://www.w3.org/1999/xlink" version="1.1" id="Capa_1" x="0px" y="0px" viewBox="0 0 480 480" style="enable-background:new 0 0 480 480;" xml:space="preserve" width="512px" height="512px" class=""><g><g>
	<g>
		<path d="M392,376h-64v-16c0-4.418-3.582-8-8-8h-34.344c-5.48-7.91-12.95-14.235-21.656-18.336V232h16c4.418,0,8-3.582,8-8V40    c-0.026-22.08-17.92-39.974-40-40h-72c-25.87-0.084-47.127,20.4-48,46.256c-0.4,12.738,4.437,25.084,13.384,34.16    c9.576,9.918,22.758,15.54,36.544,15.584H192v8h-16c-4.418,0-8,3.582-8,8v32c0,4.418,3.582,8,8,8h16v72c0,4.418,3.582,8,8,8h16    v101.672c-8.701,4.105-16.169,10.425-21.656,18.328H160c-4.418,0-8,3.582-8,8v16H88c-4.418,0-8,3.582-8,8v64c0,4.418,3.582,8,8,8    h16v16c0,4.418,3.582,8,8,8h32c4.418,0,8-3.582,8-8v-16h176v16c0,4.418,3.582,8,8,8h32c4.418,0,8-3.582,8-8v-16h16    c4.418,0,8-3.582,8-8v-64C400,379.582,396.418,376,392,376z M192,136h-8v-16h8V136z M208,216V88c0-4.418-3.582-8-8-8h-22.072    c-9.435-0.045-18.452-3.902-25-10.696c-5.93-5.951-9.158-14.074-8.928-22.472c0.559-17.247,14.745-30.915,32-30.832h72    c13.255,0,24,10.745,24,24h-24c-4.418,0-8,3.582-8,8s3.582,8,8,8h24v16h-24c-4.418,0-8,3.582-8,8s3.582,8,8,8h24v16h-24    c-4.418,0-8,3.582-8,8s3.582,8,8,8h24v96H208z M248,232v96.576c-5.306-0.768-10.694-0.768-16,0V232H248z M226.736,346.312    c6.407-2.288,13.297-2.88,20-1.72c2.256,0.388,4.473,0.977,6.624,1.76c3.814,1.328,7.403,3.233,10.64,5.648h-48    C219.268,349.568,222.888,347.65,226.736,346.312z M168,368h144v8H168V368z M136,464h-16v-8h16V464z M360,464h-16v-8h16V464z     M384,440H96v-48h288V440z" data-original="#000000" class="active-path" data-old_color="#000000" fill="#FFFFFF"/>
	</g>
</g></g> </svg>
