<svg id="Layer_1" enable-background="new 0 0 512 512" height="512" viewBox="0 0 512 512" width="512" xmlns="http://www.w3.org/2000/svg"><path d="m292.941 113.669c64.569 16.45 112.32 74.987 112.32 144.677 0 4.814-.228 19.574-.673 24.271l64.174 3.238c1.153-9.007 1.747-18.189 1.747-27.509 0-105.874-76.701-193.833-177.568-211.341l-10 34.559z" fill="#00c6cb"/><path d="m219.059 113.654c-64.597 16.43-112.377 74.981-112.377 144.691 0 5.153.261 20.245.771 25.264l-64.216 2.245c-1.153-9.007-1.747-18.189-1.747-27.509 0-105.874 76.702-193.833 177.569-211.342l10 34.187z" fill="#00ecce"/><path d="m293.37 10.13v250.65h-74.74v-250.65c0-5.59 4.53-10.13 10.13-10.13h54.48c5.6 0 10.13 4.54 10.13 10.13z" fill="#00c6cb"/><path d="m293.37 10.13v250.65h-37.37v-260.78h27.24c5.6 0 10.13 4.54 10.13 10.13z" fill="#0d8ebc"/><path d="m497 309.76v132.06c0 12.42-8.72 23.13-20.87 25.65l-209.29 43.42c-3.58.74-7.21 1.11-10.84 1.11s-7.26-.37-10.84-1.11l-209.29-43.42c-12.15-2.52-20.87-13.23-20.87-25.65v-132.06c0-12.41 8.72-23.12 20.87-25.64l209.29-43.42c3.58-.74 7.21-1.12 10.84-1.12s7.26.38 10.84 1.12l209.29 43.42c12.15 2.52 20.87 13.23 20.87 25.64z" fill="#393c47"/><path d="m497 309.76v132.06c0 12.42-8.72 23.13-20.87 25.65l-209.29 43.42c-3.58.74-7.21 1.11-10.84 1.11v-272.42c3.63 0 7.26.38 10.84 1.12l209.29 43.42c12.15 2.52 20.87 13.23 20.87 25.64z" fill="#232533"/><circle cx="156.327" cy="374.68" fill="#232533" r="55.829"/><circle cx="355.673" cy="374.68" fill="#161826" r="55.829"/></svg>