<?xml version="1.0"?>
<svg xmlns="http://www.w3.org/2000/svg" height="512px" viewBox="0 -77 512 512" width="512px" class=""><g><path d="m470.640625 43.609375c-3.652344-24.640625-24.9375-43.609375-50.578125-43.609375h-328.125c-25.640625 0-46.925781 18.96875-50.574219 43.609375-22.867187.351563-41.363281 19.054687-41.363281 42v33.113281c0 4.164063 3.375 7.539063 7.539062 7.539063 4.164063 0 7.539063-3.375 7.539063-7.539063v-33.113281c0-14.851563 12.085937-26.9375 26.9375-26.9375h427.96875c14.851563 0 26.9375 12.085937 26.9375 26.9375v166.964844c0 4.164062 3.375 7.539062 7.539063 7.539062 4.164062 0 7.539062-3.375 7.539062-7.539062v-166.964844c0-22.945313-18.496094-41.648437-41.359375-42zm-413.964844-.015625c3.476563-16.273438 17.964844-28.515625 35.261719-28.515625h328.125c17.296875 0 31.789062 12.242187 35.261719 28.515625zm0 0" data-original="#000000" class="active-path" data-old_color="#000000" fill="#FFFFFF"/><path d="m504.460938 275.191406c-4.164063 0-7.539063 3.375-7.539063 7.539063v32.972656c0 14.851563-12.082031 26.933594-26.9375 26.933594h-116.765625c-10.0625 0-19.207031-5.539063-23.867188-14.457031l-10.441406-19.96875c-.011718-.019532-.015625-.039063-.027344-.058594l-25.644531-49.050782c-1.820312-3.480468-4.074219-6.628906-6.683593-9.394531-7.8125-8.300781-18.78125-13.160156-30.554688-13.160156-12.753906 0-24.5625 5.707031-32.445312 15.308594-1.816407 2.214843-3.425782 4.636719-4.789063 7.246093l-25.648437 49.050782c-.011719.019531-.015626.042968-.027344.0625l-10.4375 19.964844c-4.664063 8.917968-13.808594 14.457031-23.871094 14.457031h-116.765625c-14.851563 0-26.9375-12.082031-26.9375-26.933594v-166.824219c0-4.164062-3.375-7.539062-7.539063-7.539062-4.164062 0-7.539062 3.375-7.539062 7.539062v166.824219c0 23.167969 18.847656 42.015625 42.015625 42.015625h116.765625c15.695312 0 29.960938-8.644531 37.234375-22.550781l8.351563-15.984375h103.265624l8.351563 15.984375c7.273437 13.90625 21.539063 22.550781 37.234375 22.550781h116.765625c23.167969 0 42.015625-18.847656 42.015625-42.015625v-32.972656c0-4.160157-3.375-7.539063-7.539062-7.539063zm-292.210938 28.914063 19.878906-38.023438c.851563-1.628906 1.847656-3.140625 2.957032-4.523437 5.039062-6.296875 12.542968-9.933594 20.914062-9.933594 8.300781 0 15.746094 3.570312 20.785156 9.761719 1.164063 1.429687 2.199219 3 3.085938 4.695312l19.878906 38.023438zm0 0" data-original="#000000" class="active-path" data-old_color="#000000" fill="#FFFFFF"/><path d="m185.917969 186.011719c0-32.945313-26.800781-59.75-59.746094-59.75s-59.746094 26.804687-59.746094 59.75c0 32.941406 26.800781 59.746093 59.746094 59.746093s59.746094-26.804687 59.746094-59.746093zm-104.414063 0c0-24.632813 20.039063-44.671875 44.667969-44.671875s44.667969 20.039062 44.667969 44.671875c0 24.628906-20.039063 44.667969-44.667969 44.667969s-44.667969-20.039063-44.667969-44.667969zm0 0" data-original="#000000" class="active-path" data-old_color="#000000" fill="#FFFFFF"/><path d="m402.921875 227.277344c-11.023437 4.566406-23.164063 4.566406-34.1875 0-16.625-6.886719-27.453125-22.960938-27.585937-40.957032-.03125-4.144531-3.402344-7.484374-7.539063-7.484374-.019531 0-.039063 0-.058594 0-4.164062.03125-7.515625 3.433593-7.480469 7.597656.179688 24.066406 14.660157 45.566406 36.894532 54.773437 7.371094 3.054688 15.117187 4.582031 22.863281 4.582031s15.492187-1.527343 22.863281-4.578124c14.746094-6.109376 26.230469-17.59375 32.335938-32.335938 6.109375-14.746094 6.109375-30.984375 0-45.730469-6.105469-14.742187-17.589844-26.226562-32.335938-32.332031-26.363281-10.921875-56.921875-1.605469-72.65625 22.160156-2.296875 3.46875-1.347656 8.148438 2.125 10.445313 3.472656 2.304687 8.148438 1.351562 10.445313-2.121094 11.757812-17.757813 34.601562-24.722656 54.316406-16.554687 22.753906 9.425781 33.601563 35.605468 24.175781 58.363281-4.566406 11.019531-13.152344 19.605469-24.175781 24.171875zm0 0" data-original="#000000" class="active-path" data-old_color="#000000" fill="#FFFFFF"/></g> </svg>
